<?xml version="1.0" encoding="UTF-8" standalone="no"?>
<!-- Created with Inkscape (http://www.inkscape.org/) -->

<svg
   width="210mm"
   height="297mm"
   viewBox="0 0 210 297"
   version="1.1"
   id="svg1"
   inkscape:version="1.3.2 (091e20e, 2023-11-25, custom)"
   sodipodi:docname="CraneHook.svg"
   xmlns:inkscape="http://www.inkscape.org/namespaces/inkscape"
   xmlns:sodipodi="http://sodipodi.sourceforge.net/DTD/sodipodi-0.dtd"
   xmlns="http://www.w3.org/2000/svg"
   xmlns:svg="http://www.w3.org/2000/svg">
  <sodipodi:namedview
     id="namedview1"
     pagecolor="#ffffff"
     bordercolor="#000000"
     borderopacity="0.25"
     inkscape:showpageshadow="2"
     inkscape:pageopacity="0.0"
     inkscape:pagecheckerboard="0"
     inkscape:deskcolor="#d1d1d1"
     inkscape:document-units="mm"
     inkscape:zoom="0.37197259"
     inkscape:cx="235.23239"
     inkscape:cy="404.5997"
     inkscape:window-width="2560"
     inkscape:window-height="1377"
     inkscape:window-x="-8"
     inkscape:window-y="-8"
     inkscape:window-maximized="1"
     inkscape:current-layer="layer1" />
  <defs
     id="defs1" />
  <g
     inkscape:label="Layer 1"
     inkscape:groupmode="layer"
     id="layer1">
    <path
       style="fill:#666666;stroke-width:2"
       d="M 33.195596,77.707873 14.334462,50.799322 23.639288,50.547841 39.231159,75.193056 37.470786,49.038949 45.015242,48.787467 46.272651,75.444537 58.84674,49.290432 66.894156,49.038949 50.29636,79.216765 v 9.304827 H 33.195596 Z"
       id="path1" />
    <path
       style="fill:#666666;stroke-width:2"
       d="M 33.950042,88.270108 29.42337,101.09568 v 10.81372 l 27.662997,-0.50297 V 100.08975 L 50.547841,88.018627 Z"
       id="path2" />
    <path
       style="fill:#666666;stroke-width:2"
       d="m 35.207449,110.40051 4.778156,11.0652 6.790007,-0.25148 3.772228,-12.32261 z"
       id="path3" />
    <path
       style="fill:#784421;stroke-width:2"
       d="m 37.722268,121.71719 v 5.28112 l 13.328536,-0.25148 -0.502965,-6.53853 -13.328534,0.25148 z"
       id="path4" />
    <path
       style="fill:#b3b3b3;stroke-width:2"
       d="m 41.745977,125.48942 h 5.029634 l 0.251484,12.57409 5.784082,7.79593 c -0.10007,4.46456 -2.332598,7.60553 -7.292974,9.05335 -6.489208,-0.098 -10.434513,-3.1823 -13.077053,-7.79594 -0.09896,-3.56416 0.149089,-7.0197 4.526672,-8.04741 0.499962,-0.33307 1.760324,0.37197 3.457876,0.18861 -4.647808,1.80417 -2.894389,4.29067 -3.457875,6.53852 1.184403,2.73004 3.47622,5.46995 7.04149,4.08658 5.98899,-1.72079 3.00381,-2.0398 4.149448,-3.45787 0.186899,-3.27223 -4.399717,-6.68541 -6.412784,-9.61918 z"
       id="path5"
       sodipodi:nodetypes="ccccccccccccc" />
    <path
       style="fill:#4d4d4d;stroke-width:2"
       d="m 31.474933,109.36206 0.355648,-6.93516 4.623438,-13.159011 -0.711298,-9.246873 -17.960273,-26.851496 2.311718,-0.533474 18.138096,26.851496 0.35565,9.958171 -5.156909,17.604627 0.177824,3.55649 z"
       id="path6" />
    <ellipse
       style="fill:none;fill-opacity:1;stroke:#000000;stroke-width:0;stroke-opacity:1;stroke-dasharray:none"
       id="path7"
       cx="173.02322"
       cy="49.435204"
       rx="10.847294"
       ry="5.334734" />
    <ellipse
       style="fill:none;fill-opacity:1;stroke:#000000;stroke-width:0;stroke-dasharray:none;stroke-opacity:1"
       id="path8"
       cx="140.83699"
       cy="67.662216"
       rx="6.7573304"
       ry="7.0240669" />
    <ellipse
       style="fill:none;fill-opacity:1;stroke:#000000;stroke-width:0.162512;stroke-dasharray:none;stroke-opacity:1"
       id="path9"
       cx="63.888378"
       cy="-50.942059"
       rx="1.0417374"
       ry="1.0103022"
       transform="scale(1,-1)" />
    <ellipse
       style="fill:none;fill-opacity:1;stroke:#000000;stroke-width:0.162512;stroke-dasharray:none;stroke-opacity:1"
       id="path10"
       cx="63.92271"
       cy="-50.939747"
       rx="0.17637372"
       ry="0.16602059"
       transform="scale(1,-1)" />
    <ellipse
       style="fill:none;fill-opacity:1;stroke:#000000;stroke-width:0.162512;stroke-dasharray:none;stroke-opacity:1"
       id="path9-5"
       cx="39.159641"
       cy="-50.242378"
       rx="1.0417374"
       ry="1.0103022"
       transform="scale(1,-1)" />
    <ellipse
       style="fill:none;fill-opacity:1;stroke:#000000;stroke-width:0.162512;stroke-dasharray:none;stroke-opacity:1"
       id="path10-5"
       cx="39.193974"
       cy="-50.240067"
       rx="0.17637372"
       ry="0.16602059"
       transform="scale(1,-1)" />
    <ellipse
       style="fill:none;fill-opacity:1;stroke:#000000;stroke-width:0.162512;stroke-dasharray:none;stroke-opacity:1"
       id="path9-4"
       cx="43.626163"
       cy="-50.104698"
       rx="1.0417374"
       ry="1.0103022"
       transform="scale(1,-1)" />
    <ellipse
       style="fill:none;fill-opacity:1;stroke:#000000;stroke-width:0.162512;stroke-dasharray:none;stroke-opacity:1"
       id="path10-3"
       cx="43.660496"
       cy="-50.102386"
       rx="0.17637372"
       ry="0.16602059"
       transform="scale(1,-1)" />
    <ellipse
       style="fill:none;fill-opacity:1;stroke:#000000;stroke-width:0.162512;stroke-dasharray:none;stroke-opacity:1"
       id="path9-53"
       cx="59.684822"
       cy="-50.853992"
       rx="1.0417374"
       ry="1.0103022"
       transform="scale(1,-1)" />
    <ellipse
       style="fill:none;fill-opacity:1;stroke:#000000;stroke-width:0.162512;stroke-dasharray:none;stroke-opacity:1"
       id="path10-1"
       cx="59.719154"
       cy="-50.851681"
       rx="0.17637372"
       ry="0.16602059"
       transform="scale(1,-1)" />
    <ellipse
       style="fill:none;fill-opacity:1;stroke:#000000;stroke-width:0.162512;stroke-dasharray:none;stroke-opacity:1"
       id="path9-57"
       cx="23.010679"
       cy="-51.923092"
       rx="1.0417374"
       ry="1.0103022"
       transform="scale(1,-1)" />
    <ellipse
       style="fill:none;fill-opacity:1;stroke:#000000;stroke-width:0.162512;stroke-dasharray:none;stroke-opacity:1"
       id="path10-8"
       cx="23.045012"
       cy="-51.92078"
       rx="0.17637372"
       ry="0.16602059"
       transform="scale(1,-1)" />
    <ellipse
       style="fill:none;fill-opacity:1;stroke:#000000;stroke-width:0.162512;stroke-dasharray:none;stroke-opacity:1"
       id="path9-44"
       cx="16.810026"
       cy="-51.950325"
       rx="1.0417374"
       ry="1.0103022"
       transform="scale(1,-1)" />
    <ellipse
       style="fill:none;fill-opacity:1;stroke:#000000;stroke-width:0.162512;stroke-dasharray:none;stroke-opacity:1"
       id="path10-6"
       cx="16.844358"
       cy="-51.948013"
       rx="0.17637372"
       ry="0.16602059"
       transform="scale(1,-1)" />
    <ellipse
       style="fill:none;fill-opacity:1;stroke:#000000;stroke-width:0.162512;stroke-dasharray:none;stroke-opacity:1"
       id="path9-6"
       cx="54.731319"
       cy="-109.1673"
       rx="1.0417374"
       ry="1.0103022"
       transform="scale(1,-1)" />
    <ellipse
       style="fill:none;fill-opacity:1;stroke:#000000;stroke-width:0.162512;stroke-dasharray:none;stroke-opacity:1"
       id="path10-31"
       cx="54.765652"
       cy="-109.16499"
       rx="0.17637372"
       ry="0.16602059"
       transform="scale(1,-1)" />
    <ellipse
       style="fill:none;fill-opacity:1;stroke:#000000;stroke-width:0.162512;stroke-dasharray:none;stroke-opacity:1"
       id="path9-3"
       cx="31.403919"
       cy="-109.97943"
       rx="1.0417374"
       ry="1.0103022"
       transform="scale(1,-1)" />
    <ellipse
       style="fill:none;fill-opacity:1;stroke:#000000;stroke-width:0.162512;stroke-dasharray:none;stroke-opacity:1"
       id="path10-50"
       cx="31.438251"
       cy="-109.97713"
       rx="0.17637372"
       ry="0.16602059"
       transform="scale(1,-1)" />
    <ellipse
       style="fill:none;fill-opacity:1;stroke:#000000;stroke-width:0.162512;stroke-dasharray:none;stroke-opacity:1"
       id="path9-36"
       cx="36.268505"
       cy="-88.831139"
       rx="1.0417374"
       ry="1.0103022"
       transform="scale(1,-1)" />
    <ellipse
       style="fill:none;fill-opacity:1;stroke:#000000;stroke-width:0.162512;stroke-dasharray:none;stroke-opacity:1"
       id="path10-7"
       cx="36.302837"
       cy="-88.828827"
       rx="0.17637372"
       ry="0.16602059"
       transform="scale(1,-1)" />
    <ellipse
       style="fill:none;fill-opacity:1;stroke:#000000;stroke-width:0.162512;stroke-dasharray:none;stroke-opacity:1"
       id="path9-8"
       cx="48.053616"
       cy="-88.569099"
       rx="1.0417374"
       ry="1.0103022"
       transform="scale(1,-1)" />
    <ellipse
       style="fill:none;fill-opacity:1;stroke:#000000;stroke-width:0.162512;stroke-dasharray:none;stroke-opacity:1"
       id="path10-0"
       cx="48.087948"
       cy="-88.566788"
       rx="0.17637372"
       ry="0.16602059"
       transform="scale(1,-1)" />
    <ellipse
       style="fill:none;fill-opacity:1;stroke:#000000;stroke-width:0.162512;stroke-dasharray:none;stroke-opacity:1"
       id="path9-9"
       cx="41.072861"
       cy="-118.94378"
       rx="1.0417374"
       ry="1.0103022"
       transform="scale(1,-1)" />
    <ellipse
       style="fill:none;fill-opacity:1;stroke:#000000;stroke-width:0.162512;stroke-dasharray:none;stroke-opacity:1"
       id="path10-54"
       cx="41.107193"
       cy="-118.94147"
       rx="0.17637372"
       ry="0.16602059"
       transform="scale(1,-1)" />
    <ellipse
       style="fill:none;fill-opacity:1;stroke:#000000;stroke-width:0.162512;stroke-dasharray:none;stroke-opacity:1"
       id="path9-41"
       cx="45.397743"
       cy="-118.63206"
       rx="1.0417374"
       ry="1.0103022"
       transform="scale(1,-1)" />
    <ellipse
       style="fill:none;fill-opacity:1;stroke:#000000;stroke-width:0.162512;stroke-dasharray:none;stroke-opacity:1"
       id="path10-06"
       cx="45.432076"
       cy="-118.62975"
       rx="0.17637372"
       ry="0.16602059"
       transform="scale(1,-1)" />
  </g>
</svg>
