<?xml version="1.0" encoding="UTF-8" standalone="no"?>
<!-- Created with Inkscape (http://www.inkscape.org/) -->

<svg
   width="210mm"
   height="297mm"
   viewBox="0 0 210 297"
   version="1.1"
   id="svg1"
   inkscape:version="1.3.2 (091e20e, 2023-11-25, custom)"
   sodipodi:docname="fallingLady.svg"
   xmlns:inkscape="http://www.inkscape.org/namespaces/inkscape"
   xmlns:sodipodi="http://sodipodi.sourceforge.net/DTD/sodipodi-0.dtd"
   xmlns="http://www.w3.org/2000/svg"
   xmlns:svg="http://www.w3.org/2000/svg">
  <sodipodi:namedview
     id="namedview1"
     pagecolor="#ffffff"
     bordercolor="#000000"
     borderopacity="0.25"
     inkscape:showpageshadow="2"
     inkscape:pageopacity="0.0"
     inkscape:pagecheckerboard="0"
     inkscape:deskcolor="#d1d1d1"
     inkscape:document-units="mm"
     inkscape:zoom="0.74394518"
     inkscape:cx="197.5952"
     inkscape:cy="624.37396"
     inkscape:window-width="1279"
     inkscape:window-height="1377"
     inkscape:window-x="1273"
     inkscape:window-y="0"
     inkscape:window-maximized="0"
     inkscape:current-layer="layer1" />
  <defs
     id="defs1" />
  <g
     inkscape:label="Layer 1"
     inkscape:groupmode="layer"
     id="layer1">
    <path
       style="fill:#dafdfd;fill-opacity:1;stroke:#000000;stroke-width:1;stroke-opacity:1"
       d="m 52.05673,118.44792 -1.005928,1.50889 0.502965,4.27519 1.760374,2.01186 5.532599,14.33446 3.646484,-0.37722 0.628706,-22.38188 c 0,0 -7.544453,-0.25148 -8.047418,0 -0.502963,0.25148 -3.017782,0.6287 -3.017782,0.6287 z"
       id="path16" />
    <path
       style="fill:#f8cbb9;fill-opacity:1;stroke:#000000;stroke-width:1;stroke-opacity:1"
       d="m 45.015242,86.509737 c -1.011309,0.806634 -2.770884,0.544317 -2.263338,3.520744 1.359632,1.527287 1.264038,1.599348 1.508892,2.011856 -1.363134,2.091405 -3.672489,3.394292 -3.772227,6.538527 2.092584,4.703626 5.610948,5.129896 8.550381,7.292976 l 1.508891,-2.26334 c -2.475151,-1.97424 -5.659177,-1.99907 -7.292972,-6.287045 l 2.263336,-4.275191 c 0.402572,-1.361315 1.181884,-2.647281 2.7663,-3.772227 -1.008985,-1.067484 -1.208599,-3.591837 -3.269263,-2.7663 z"
       id="path11"
       sodipodi:nodetypes="cccccccccc" />
    <path
       style="fill:#fbbbfb;fill-opacity:1;stroke:#000000;stroke-width:1;stroke-opacity:1"
       d="m 49.257381,106.33904 2.489544,2.48954 0.889121,9.24687 c 1.492758,0.76816 2.889627,1.29659 3.91214,0.88913 3.442172,0.41775 4.418481,-0.80842 6.579505,-1.24477 -1.339426,-3.37407 -2.499792,-6.8914 -2.667368,-11.20295 l -0.533474,-5.86821 -8.891222,2.48955 z"
       id="path15"
       sodipodi:nodetypes="ccccccccc" />
    <path
       style="fill:#f8cbb9;stroke:#000000;stroke-width:1;stroke-opacity:1;fill-opacity:1"
       d="m 51.213451,103.31602 0.177823,-7.2908 5.156912,-1.066948 2.311717,3.91214 v 0.889121 l 0.889122,1.422597 -1.778243,0.17782 0.177824,1.4226 -0.889122,0.35565 0.533471,1.06694 -1.422595,0.35565 z"
       id="path12" />
    <path
       style="fill:#eeeeae;stroke:#000000;stroke-width:1;stroke-opacity:1;fill-opacity:1"
       d="M 47.479137,99.759533 V 96.02522 l 1.60042,-2.667368 2.667368,-1.244772 2.845191,-0.355647 2.311718,0.533471 0.889121,1.778246 -1.600419,2.133894 -2.489544,1.422596 H 50.8578 l -0.177824,1.956069 v 3.734311 z"
       id="path13" />
    <path
       style="fill:#f8cbb9;fill-opacity:1;stroke:#000000;stroke-width:1;stroke-opacity:1"
       d="m 53.702992,91.223959 c -1.109151,-0.624126 0.983814,2.131759 -3.912137,-2.489544 l -2.489544,-1.956068 c 0.172152,-2.588856 1.630055,-2.820501 3.200842,-2.845191 1.510831,0.08959 1.455937,1.744902 1.600419,3.200839 l -0.889121,0.711298 c 2.462753,2.72341 4.078795,3.47116 5.868206,4.623438 z"
       id="path14"
       sodipodi:nodetypes="cccccccc" />
    <path
       style="fill:#dafdfd;fill-opacity:1;stroke:#000000;stroke-width:1;stroke-opacity:1"
       d="M 60.607111,139.94962 58.469516,124.10626"
       id="path17" />
    <path
       style="fill:#cccccc;fill-opacity:1;stroke:#000000;stroke-width:1;stroke-opacity:1"
       d="m 58.720997,140.57832 c -0.502962,0 -4.023706,1.88612 -4.023706,1.88612 l 1.131668,1.00592 3.395003,-0.37722 1.383149,-2.26334 2.263336,1.88612 4.14945,-0.12574 -1.131668,-1.63464 -3.269263,-0.75444 z"
       id="path18" />
  </g>
</svg>
